<?xml version="1.0" encoding="utf-8"?>
<!-- Generator: Adobe Illustrator 23.0.3, SVG Export Plug-In . SVG Version: 6.00 Build 0)  -->
<svg version="1.1" id="图层_1" xmlns="http://www.w3.org/2000/svg" xmlns:xlink="http://www.w3.org/1999/xlink" x="0px" y="0px"
	 viewBox="0 0 32 32" style="enable-background:new 0 0 32 32;" xml:space="preserve">
<style type="text/css">
	.st0{fill:#41CD52;}
	.st1{fill:#FFFFFF;}
</style>
<path class="st0" d="M26.3,30.1H5.7c-2,0-3.7-1.7-3.7-3.7V5.8c0-2,1.7-3.7,3.7-3.7h20.6c2,0,3.7,1.7,3.7,3.7v20.6
	C30,28.5,28.3,30.1,26.3,30.1z"/>
<title>file_type_qml</title>
<path class="st1" d="M22.9,24.6H9.3c-1.4,0-2.5-1-2.5-2.1V10.6c0-1.2,1.1-2.1,2.5-2.1h13.6c1.4,0,2.5,1,2.5,2.1v11.9
	C25.3,23.7,24.2,24.6,22.9,24.6z"/>
<path class="st0" d="M27.3,5.5H5.9L2,9.5v17h24.1l3.9-4v-17H27.3z M16.9,23.6l-1.8,0.9l-1.6-2.6c-0.4,0.1-0.7,0.1-1.1,0.1
	c-1.8,0-3.1-0.5-3.8-1.5c-0.8-1.4-1.2-3.1-1.1-4.7c-0.1-1.7,0.3-3.3,1.1-4.8c0.9-1.1,2.4-1.7,3.8-1.6c1.8,0,3.1,0.5,3.8,1.5
	c0.8,1.4,1.2,3.1,1.1,4.8c0,1.2-0.1,2.3-0.5,3.4c-0.3,0.8-0.8,1.5-1.5,2L16.9,23.6z M22.7,21.9c-0.8,0.1-1.6-0.2-2.2-0.7
	c-0.5-0.8-0.7-1.7-0.6-2.6v-4.1h-1v-2h1v-3h2v3h2v2h-2v3.9c0,0.5,0,1,0.2,1.4c0.1,0.2,0.4,0.4,0.9,0.4l1.5-0.1l0.1,1.5
	C24,21.8,23.4,21.9,22.7,21.9z M12.4,11.1c-0.9-0.1-1.8,0.3-2.3,1.1c-0.5,1.1-0.7,2.3-0.6,3.5c-0.1,1.2,0.1,2.4,0.6,3.4
	c0.5,0.7,1.4,1.1,2.3,1c0.9,0.1,1.8-0.3,2.3-1c0.5-1.1,0.7-2.3,0.6-3.4c0.1-1.2-0.1-2.4-0.6-3.5C14.2,11.4,13.3,11,12.4,11.1z"/>
</svg>
